<?xml version="1.0" encoding="UTF-8"?>
<svg version="1.1" xmlns="http://www.w3.org/2000/svg" width="200" height="155">
<path d="M0 0 C12.07220158 10.77464522 20.80016223 22.45736597 22.37890625 38.9609375 C23.09408681 54.92567483 17.20226463 67.55041216 6.625 79.25 C2.46257113 83.74048109 -1.92152171 87.58441518 -7 91 C-2.11294604 100.16703503 3.15874098 109.08379223 8.49365234 117.99316406 C9.56784154 119.78866871 10.63947096 121.58568226 11.7109375 123.3828125 C12.34306152 124.43871582 12.97518555 125.49461914 13.62646484 126.58251953 C15 129 15 129 15 130 C1.8 130 -11.4 130 -25 130 C-34 114 -34 114 -38 106 C-38.65484375 106.13277344 -39.3096875 106.26554688 -39.984375 106.40234375 C-46.9889037 107.75773984 -53.88330642 108.49764516 -61 109 C-61 115.93 -61 122.86 -61 130 C-72.88 130 -84.76 130 -97 130 C-97 123.4 -97 116.8 -97 110 C-99.22943359 109.56300781 -99.22943359 109.56300781 -101.50390625 109.1171875 C-122.01437712 104.96695475 -140.694938 98.6375672 -157 85 C-158.485 83.9171875 -158.485 83.9171875 -160 82.8125 C-168.33589969 75.73046823 -177.18900367 63.05646787 -178.19287109 51.84619141 C-178.81185469 32.68020828 -176.0312868 20.58498916 -163.05859375 5.78515625 C-123.82427317 -35.50995693 -42.56123353 -35.94915653 0 0 Z M-123 20 C-123.59296875 20.40863281 -124.1859375 20.81726563 -124.796875 21.23828125 C-131.20310568 26.04295426 -136.33112823 34.15216499 -138 42 C-139.06913159 51.51659108 -137.63560924 59.0245885 -131.96484375 66.78515625 C-123.08875517 77.27770324 -111.24531249 84.33299215 -98 88 C-97.34 87.67 -96.68 87.34 -96 87 C-96.33 63.9 -96.66 40.8 -97 17 C-78.47418662 17.08913069 -78.47418662 17.08913069 -70.52148438 17.16015625 C-65.11449969 17.20833695 -59.70771521 17.25243922 -54.30053711 17.27099609 C-49.93659781 17.28624273 -45.57318557 17.32082827 -41.20948219 17.36830902 C-39.5523419 17.38304082 -37.89512632 17.39103626 -36.23792076 17.39188385 C-23.49244687 17.4049476 -12.41165117 18.4338951 -2.8828125 27.7578125 C3.15676009 34.95016658 3.78704716 43.13558254 3.37890625 52.22265625 C2.52201438 60.76507314 -1.53817666 67.38261949 -8 73 C-12.79591917 76.01993035 -17.40274091 78.0538441 -23 79 C-20.13397778 81.33527737 -17.58780947 83.03003988 -14 84 C-5.86977214 80.93749265 0.6284873 74.35442725 5 67 C9.80613216 56.28491216 10.9330929 44.52601544 7.03515625 33.33984375 C1.59720705 21.04802649 -7.80068673 14.02839077 -20 9 C-53.01215569 -2.48085232 -94.01327869 -0.75409808 -123 20 Z M-61 42 C-61 47.94 -61 53.88 -61 60 C-57.2498081 60.0539165 -53.50039039 60.09363473 -49.75 60.125 C-48.68652344 60.14175781 -47.62304688 60.15851563 -46.52734375 60.17578125 C-45.50253906 60.18222656 -44.47773438 60.18867187 -43.421875 60.1953125 C-42.00793457 60.21102295 -42.00793457 60.21102295 -40.56542969 60.22705078 C-37.86677387 59.98820895 -36.27823827 59.43717052 -34 58 C-31.69432687 54.77205762 -31.67630568 51.88433181 -32 48 C-33.20744944 44.79523376 -33.20744944 44.79523376 -36 43 C-37.88472859 42.84655791 -39.77427874 42.75040429 -41.6640625 42.68359375 C-42.78554687 42.64169922 -43.90703125 42.59980469 -45.0625 42.55664062 C-46.238125 42.51732422 -47.41375 42.47800781 -48.625 42.4375 C-50.40003906 42.37272461 -50.40003906 42.37272461 -52.2109375 42.30664062 C-55.14047907 42.20032662 -58.07022377 42.09963783 -61 42 Z M-61 86 C-61 88.31 -61 90.62 -61 93 C-56.05 92.67 -51.1 92.34 -46 92 C-47.5 88 -47.5 88 -50 87 C-51.87056791 86.7724985 -53.74685958 86.59037189 -55.625 86.4375 C-56.62789063 86.35371094 -57.63078125 86.26992187 -58.6640625 86.18359375 C-59.43492188 86.12300781 -60.20578125 86.06242187 -61 86 Z " fill="#2165B8" transform="translate(178,25)"/>
<path d="M0 0 C12.07220158 10.77464522 20.80016223 22.45736597 22.37890625 38.9609375 C23.09392493 54.92206113 17.20500376 67.55517232 6.625 79.25 C-2.18062834 88.69261215 -2.18062834 88.69261215 -7 91 C-7.99 90.67 -8.98 90.34 -10 90 C-10.33 89.01 -10.66 88.02 -11 87 C-11.99 86.34 -12.98 85.68 -14 85 C-14 84.34 -14 83.68 -14 83 C-12.36487249 81.96902806 -10.68965041 81.00144975 -9 80.0625 C-1.08243084 75.13442538 4.1838981 68.56873104 7 59.625 C9.58198156 47.87195409 8.66029723 36.53389929 2.25 26.25 C-7.62759911 12.54181977 -24.00713704 7.64432248 -40.03125 4.9140625 C-68.58749868 0.70134738 -99.13131823 3.74837852 -123 21 C-129.84690671 26.10443045 -135.19776341 33.52501968 -137 42 C-138.05104253 51.35557611 -136.64391025 58.84826481 -131.1875 66.5625 C-121.82732811 77.8497661 -109.35284125 83.00828365 -96 88 C-96 94.93 -96 101.86 -96 109 C-120.73724383 107.62570868 -145.13704995 97.27080806 -163 80 C-175.44096822 65.90023602 -178.95528086 52.99705364 -178.21777344 34.67822266 C-177.09406129 20.85857885 -167.12433348 8.79070142 -157 0 C-114.81292851 -33.8695494 -41.85604971 -35.35352615 0 0 Z " fill="#B2B3B8" transform="translate(178,25)"/>
<path d="M0 0 C24.09 0 48.18 0 73 0 C73 0.66 73 1.32 73 2 C50.23 2.33 27.46 2.66 4 3 C3.71190563 24.80707691 3.71190563 24.80707691 3.43188477 46.61425781 C3.22868601 61.75959188 2.96485597 76.87958221 2 92 C1.67 92 1.34 92 1 92 C-0.19267512 72.53801614 -0.11386736 53.11459335 -0.0625 33.625 C-0.041875 22.52875 -0.02125 11.4325 0 0 Z " fill="#2A6EC4" transform="translate(81,42)"/>
<path d="M0 0 C2.78538484 -0.29119932 4.75707814 -0.37287166 7.453125 0.41796875 C10.90465046 4.1434248 13.453125 8.27320595 13.453125 13.41796875 C10.76778936 14.09458875 8.0804 14.75942996 5.390625 15.41796875 C4.63845703 15.60875 3.88628906 15.79953125 3.11132812 15.99609375 C2.36689453 16.1765625 1.62246094 16.35703125 0.85546875 16.54296875 C0.17991943 16.71054688 -0.49562988 16.878125 -1.19165039 17.05078125 C-4.27521034 17.5315187 -7.42606574 17.41796875 -10.546875 17.41796875 C-10.546875 12.13796875 -10.546875 6.85796875 -10.546875 1.41796875 C-7.03394625 0.89753486 -3.50352405 0.57496484 0 0 Z " fill="#8C8D96" transform="translate(126.546875,116.58203125)"/>
<path d="M0 0 C0 0.33 0 0.66 0 1 C-12.38954385 0.08729066 -12.38954385 0.08729066 -17.625 -0.5625 C-30.40396422 -1.81978519 -42.8737805 -1.2352088 -55.50146484 1.02050781 C-56.29375488 1.1594043 -57.08604492 1.29830078 -57.90234375 1.44140625 C-58.94636353 1.63778687 -58.94636353 1.63778687 -60.01147461 1.83813477 C-62.22699635 2.01847742 -63.88625922 1.64835588 -66 1 C-63.83432456 0.51637304 -61.66740259 0.03832683 -59.5 -0.4375 C-58.2934375 -0.70433594 -57.086875 -0.97117187 -55.84375 -1.24609375 C-37.32500408 -4.87832745 -18.42770236 -3.42461725 0 0 Z " fill="#AEB1B2" transform="translate(148,32)"/>
<path d="M0 0 C9.17089258 -0.02318444 18.34177504 -0.04094622 27.51269054 -0.05181217 C31.7712476 -0.05702764 36.02978458 -0.06410104 40.28833008 -0.07543945 C44.39911916 -0.0863158 48.50988894 -0.09228691 52.6206913 -0.09487724 C54.18794369 -0.09672293 55.75519503 -0.10032707 57.32243919 -0.10573006 C59.5199142 -0.11300348 61.71730979 -0.11398828 63.91479492 -0.11352539 C65.16499924 -0.115746 66.41520355 -0.11796661 67.70329285 -0.12025452 C70.60423534 -0.01443637 73.18454235 0.32540867 76 1 C76 1.33 76 1.66 76 2 C50.92 1.67 25.84 1.34 0 1 C0 0.67 0 0.34 0 0 Z " fill="#037DF6" transform="translate(82,39)"/>
<path d="M0 0 C-1.27149582 3.81448747 -2.76842289 4.4536898 -6.0625 6.6875 C-10.69527166 9.93888532 -14.60336835 13.38201983 -18.44140625 17.53125 C-20 19 -20 19 -22 19 C-18.95750354 12.13917048 -7.9312503 0 0 0 Z M-23 19 C-22.34 19.66 -21.68 20.32 -21 21 C-22.375 23 -22.375 23 -24 25 C-24.66 25 -25.32 25 -26 25 C-24.125 20.125 -24.125 20.125 -23 19 Z " fill="#CBCED1" transform="translate(33,18)"/>
<path d="M0 0 C0.33 0 0.66 0 1 0 C1 22.77 1 45.54 1 69 C0.01 68.67 -0.98 68.34 -2 68 C-1.34 68 -0.68 68 0 68 C0 45.56 0 23.12 0 0 Z " fill="#417FBE" transform="translate(79,42)"/>
<path d="M0 0 C7.92 0 15.84 0 24 0 C24.33 0.66 24.66 1.32 25 2 C17.08 1.67 9.16 1.34 1 1 C1.33 4.96 1.66 8.92 2 13 C9.26 13 16.52 13 24 13 C20.74610012 15.16926659 19.86604043 15.24080049 16.11328125 15.1953125 C14.7065918 15.18564453 14.7065918 15.18564453 13.27148438 15.17578125 C11.80678711 15.15064453 11.80678711 15.15064453 10.3125 15.125 C9.32443359 15.11597656 8.33636719 15.10695313 7.31835938 15.09765625 C4.87880294 15.07408566 2.43937099 15.03821469 0 15 C0 10.05 0 5.1 0 0 Z " fill="#035AB3" transform="translate(118,69)"/>
<path d="M0 0 C3.4697883 5.20468245 3.61791712 11.85172467 3 18 C2.1447976 22.04232296 1.11389056 26.02181944 0 30 C-1.36247012 27.77781626 -2.07206265 26.54199235 -1.72265625 23.9140625 C-1.50480469 23.15867187 -1.28695312 22.40328125 -1.0625 21.625 C0.28407989 15.91481945 -0.21007067 10.70247351 -0.80859375 4.90625 C-1 2 -1 2 0 0 Z " fill="#6081A6" transform="translate(183,59)"/>
<path d="M0 0 C0 0.99 0 1.98 0 3 C-0.70125 3.53625 -1.4025 4.0725 -2.125 4.625 C-8.51241776 9.90156249 -11.9597679 17.43518719 -15 25 C-15.66 25 -16.32 25 -17 25 C-16.51477309 15.78068874 -10.08382633 8.61174745 -3.734375 2.49609375 C-2 1 -2 1 0 0 Z " fill="#C0C2C5" transform="translate(55,43)"/>
<path d="M0 0 C0.66 0.66 1.32 1.32 2 2 C1.01 3.32 0.02 4.64 -1 6 C-1.33 5.01 -1.66 4.02 -2 3 C-1.34 2.01 -0.68 1.02 0 0 Z M-3 5 C-1.9140625 6.78515625 -1.9140625 6.78515625 -1 9 C-1.94280904 11.3570226 -2.94647157 13.69034152 -4 16 C-4.25390222 18.79340157 -4.25390222 18.79340157 -4 21 C-4.66 21 -5.32 21 -6 21 C-6.37851209 15.06997733 -5.10575375 10.52760359 -3 5 Z " fill="#CBCED0" transform="translate(6,43)"/>
<path d="M0 0 C-6 3 -12 6 -18 9 C-18 8.01 -18 7.02 -18 6 C-15.56781941 4.80036357 -13.13029422 3.61515562 -10.6875 2.4375 C-9.99720703 2.09525391 -9.30691406 1.75300781 -8.59570312 1.40039062 C-3.33984375 -1.11328125 -3.33984375 -1.11328125 0 0 Z " fill="#CACDD0" transform="translate(52,10)"/>
<path d="M0 0 C-4.9665499 2.96546426 -10.34307771 2.63107029 -16 3 C-16 9.27 -16 15.54 -16 22 C-16.33 22 -16.66 22 -17 22 C-17 15.4 -17 8.8 -17 2 C-4.8125 -0.14285714 -4.8125 -0.14285714 0 0 Z " fill="#47719F" transform="translate(135,133)"/>
<path d="M0 0 C0.33 0.99 0.66 1.98 1 3 C-1.64 5.64 -4.28 8.28 -7 11 C-7.99 10.67 -8.98 10.34 -10 10 C-6.7 6.7 -3.4 3.4 0 0 Z " fill="#888790" transform="translate(186,99)"/>
<path d="M0 0 C0.66 0.33 1.32 0.66 2 1 C1.67 1.99 1.34 2.98 1 4 C0.34 4 -0.32 4 -1 4 C-0.67 2.68 -0.34 1.36 0 0 Z M-2 4 C-1.34 4.66 -0.68 5.32 0 6 C-0.66 6 -1.32 6 -2 6 C-2 5.34 -2 4.68 -2 4 Z M-3 6 C-2.34 6.66 -1.68 7.32 -1 8 C-1.99 8.33 -2.98 8.66 -4 9 C-3.67 8.01 -3.34 7.02 -3 6 Z M-5 9 C-4.34 9.66 -3.68 10.32 -3 11 C-3.99 11.99 -4.98 12.98 -6 14 C-6.66 13.67 -7.32 13.34 -8 13 C-7.01 11.68 -6.02 10.36 -5 9 Z " fill="#898991" transform="translate(185,86)"/>
<path d="M0 0 C0.60585938 0.12117187 1.21171875 0.24234375 1.8359375 0.3671875 C3.09277344 0.61855469 3.09277344 0.61855469 4.375 0.875 C7.21354167 1.44270833 10.05208333 2.01041667 12.890625 2.578125 C14.24414062 2.84882813 14.24414062 2.84882813 15.625 3.125 C17.8125 3.5625 17.8125 3.5625 20 4 C20 4.33 20 4.66 20 5 C12.87615459 5.66268329 6.69120815 3.25388064 0 1 C0 0.67 0 0.34 0 0 Z " fill="#9797A1" transform="translate(55,130)"/>
<path d="M0 0 C1.62418745 -0.08090971 3.24951745 -0.13914995 4.875 -0.1875 C5.77992187 -0.22230469 6.68484375 -0.25710937 7.6171875 -0.29296875 C8.79667969 -0.14794922 8.79667969 -0.14794922 10 0 C10.66 0.99 11.32 1.98 12 3 C6.06 3.495 6.06 3.495 0 4 C0 2.68 0 1.36 0 0 Z M1 1 C1 1.33 1 1.66 1 2 C3.97 2 6.94 2 10 2 C10 1.67 10 1.34 10 1 C7.03 1 4.06 1 1 1 Z " fill="#597BAA" transform="translate(118,113)"/>
<path d="M0 0 C0 0.99 0 1.98 0 3 C-0.99 3.66 -1.98 4.32 -3 5 C-3 4.01 -3 3.02 -3 2 C-2.01 1.34 -1.02 0.68 0 0 Z M-6 4 C-5.34 4 -4.68 4 -4 4 C-4.33 4.99 -4.66 5.98 -5 7 C-5.66 6.34 -6.32 5.68 -7 5 C-6.67 4.67 -6.34 4.34 -6 4 Z M-9 6 C-8.34 6 -7.68 6 -7 6 C-7.33 6.66 -7.66 7.32 -8 8 C-8.33 7.34 -8.66 6.68 -9 6 Z M-11 7 C-10.34 7 -9.68 7 -9 7 C-9.33 7.99 -9.66 8.98 -10 10 C-10.33 9.01 -10.66 8.02 -11 7 Z " fill="#8A8A91" transform="translate(175,101)"/>
<path d="M0 0 C2.76544722 3.45680903 4.84921278 7.14341602 7 11 C6.01 11 5.02 11 4 11 C2.578125 9.35546875 2.578125 9.35546875 1.25 7.1875 C0.80140625 6.47980469 0.3528125 5.77210937 -0.109375 5.04296875 C-1 3 -1 3 0 0 Z " fill="#BFC2C5" transform="translate(6,88)"/>
<path d="M0 0 C1.65 0 3.3 0 5 0 C5 6.6 5 13.2 5 20 C4.67 20 4.34 20 4 20 C4 13.73 4 7.46 4 1 C2.68 0.67 1.36 0.34 0 0 Z " fill="#276FBF" transform="translate(75,135)"/>
<path d="M0 0 C2.97 0.99 5.94 1.98 9 3 C8.67 3.99 8.34 4.98 8 6 C5.36 5.01 2.72 4.02 0 3 C0 2.01 0 1.02 0 0 Z " fill="#A0A1A9" transform="translate(73,110)"/>
<path d="M0 0 C2.3125 -0.1875 2.3125 -0.1875 5 0 C5.99 0.99 6.98 1.98 8 3 C3.71 3 -0.58 3 -5 3 C-5 2.67 -5 2.34 -5 2 C-3.35 2 -1.7 2 0 2 C0 1.34 0 0.68 0 0 Z " fill="#C4C6C9" transform="translate(89,0)"/>
<path d="M0 0 C6.19518473 0.41588046 11.26689311 1.60251894 17 4 C13.1280483 5.29065057 10.55767399 4.22324098 6.8125 3.0625 C5.83120117 2.76956055 5.83120117 2.76956055 4.83007812 2.47070312 C3.21772593 1.98817437 1.60853711 1.49509795 0 1 C0 0.67 0 0.34 0 0 Z " fill="#AFAFBE" transform="translate(132,2)"/>
<path d="M0 0 C1.22589844 0.15275391 1.22589844 0.15275391 2.4765625 0.30859375 C3.41628906 0.43427734 3.41628906 0.43427734 4.375 0.5625 C4.375 0.8925 4.375 1.2225 4.375 1.5625 C3.488125 1.541875 2.60125 1.52125 1.6875 1.5 C-1.24669631 1.55536219 -3.77993696 1.8930734 -6.625 2.5625 C-6.625 1.9025 -6.625 1.2425 -6.625 0.5625 C-4.10446405 -0.69776798 -2.7707902 -0.35624445 0 0 Z " fill="#C6C9CC" transform="translate(77.625,2.4375)"/>
<path d="M0 0 C1.32 0.33 2.64 0.66 4 1 C4 1.66 4 2.32 4 3 C5.32 3 6.64 3 8 3 C8 3.66 8 4.32 8 5 C2.25 4.125 2.25 4.125 0 3 C0 2.01 0 1.02 0 0 Z " fill="#9A9BA0" transform="translate(53,125)"/>
<path d="M0 0 C4.77576339 0.4682121 8.04476345 1.24331998 12 4 C10 5 10 5 7.6171875 4.22265625 C6.71226562 3.83980469 5.80734375 3.45695312 4.875 3.0625 C3.50988281 2.49208984 3.50988281 2.49208984 2.1171875 1.91015625 C1.41851562 1.60980469 0.71984375 1.30945312 0 1 C0 0.67 0 0.34 0 0 Z " fill="#0846B2" transform="translate(158,41)"/>
<path d="M0 0 C0.66 0.66 1.32 1.32 2 2 C1.96712417 4.72869407 1.43602229 7.2966618 1 10 C0.67 10 0.34 10 0 10 C0 6.7 0 3.4 0 0 Z " fill="#053D97" transform="translate(143,71)"/>
<path d="M0 0 C1.03115279 3.26913624 0.9638984 5.86041348 0.5625 9.25 C0.46066406 10.14203125 0.35882813 11.0340625 0.25390625 11.953125 C0.17011719 12.62859375 0.08632813 13.3040625 0 14 C-0.33 14 -0.66 14 -1 14 C-1.02705729 12.22925083 -1.04642195 10.45838289 -1.0625 8.6875 C-1.07410156 7.70136719 -1.08570313 6.71523437 -1.09765625 5.69921875 C-1 3 -1 3 0 0 Z " fill="#C8C8CE" transform="translate(42,64)"/>
<path d="M0 0 C0.66 0.33 1.32 0.66 2 1 C-1.465 3.97 -1.465 3.97 -5 7 C-3.38262276 3.76524552 -2.52370777 2.29427979 0 0 Z " fill="#E6E6E6" transform="translate(17,26)"/>
<path d="M0 0 C0 3 0 3 -1.5 4.6875 C-1.995 5.120625 -2.49 5.55375 -3 6 C-3.66 5.67 -4.32 5.34 -5 5 C-3.35 3.35 -1.7 1.7 0 0 Z " fill="#747474" transform="translate(186,103)"/>
<path d="M0 0 C1.98 1.65 3.96 3.3 6 5 C3 5 3 5 1.3125 3.625 C0 2 0 2 0 0 Z " fill="#B9B9C5" transform="translate(49,92)"/>
<path d="M0 0 C1.32 0.33 2.64 0.66 4 1 C3.67 2.65 3.34 4.3 3 6 C0 2.25 0 2.25 0 0 Z " fill="#365CB1" transform="translate(179,55)"/>
<path d="M0 0 C2.62187494 1.04874998 3.79371361 1.64931313 5.25 4.125 C5.4975 4.74375 5.745 5.3625 6 6 C3.97945196 4.35830472 1.97956942 2.69088222 0 1 C0 0.67 0 0.34 0 0 Z " fill="#A4A4A4" transform="translate(172,44)"/>
<path d="M0 0 C-3.13498292 1.85776765 -5.37471432 2.20140476 -9 2 C-5.86501708 0.14223235 -3.62528568 -0.20140476 0 0 Z " fill="#C6C6C6" transform="translate(72,1)"/>
<path d="M0 0 C0.99 1.32 1.98 2.64 3 4 C2.67 4.66 2.34 5.32 2 6 C0 3 0 3 0 0 Z " fill="#00458A" transform="translate(144,141)"/>
<path d="M0 0 C1.98 0.66 3.96 1.32 6 2 C5.01 2.33 4.02 2.66 3 3 C2.01 2.01 1.02 1.02 0 0 Z " fill="#828282" transform="translate(64,104)"/>
<path d="M0 0 C0.33 0.99 0.66 1.98 1 3 C0.01 3.99 -0.98 4.98 -2 6 C-1.34 4.02 -0.68 2.04 0 0 Z " fill="#6F6F7A" transform="translate(196,88)"/>
<path d="M0 0 C0.99 0.33 1.98 0.66 3 1 C1.02 1.66 -0.96 2.32 -3 3 C-2.01 2.01 -1.02 1.02 0 0 Z " fill="#E6E6E6" transform="translate(66,39)"/>
<path d="M0 0 C0.598125 0.20625 1.19625 0.4125 1.8125 0.625 C-0.4975 0.955 -2.8075 1.285 -5.1875 1.625 C-2.1875 -0.375 -2.1875 -0.375 0 0 Z " fill="#D4D4D4" transform="translate(61.1875,3.375)"/>
<path d="M0 0 C0.66 0.33 1.32 0.66 2 1 C1.67 1.66 1.34 2.32 1 3 C-0.32 2.34 -1.64 1.68 -3 1 C-2.01 0.67 -1.02 0.34 0 0 Z " fill="#648BAD" transform="translate(138,131)"/>
<path d="M0 0 C2.475 0.495 2.475 0.495 5 1 C4.01 1.33 3.02 1.66 2 2 C1.34 1.34 0.68 0.68 0 0 Z " fill="#8C8C8C" transform="translate(47,127)"/>
<path d="M0 0 C2.475 0.495 2.475 0.495 5 1 C4.01 1.33 3.02 1.66 2 2 C1.34 1.34 0.68 0.68 0 0 Z " fill="#B8B8B8" transform="translate(42,125)"/>
<path d="M0 0 C0 0.99 0 1.98 0 3 C-0.99 3.495 -0.99 3.495 -2 4 C-1.34 2.68 -0.68 1.36 0 0 Z " fill="#0A3C6D" transform="translate(178,91)"/>
<path d="M0 0 C0.99 0.33 1.98 0.66 3 1 C1.35 1.33 -0.3 1.66 -2 2 C-1.34 1.34 -0.68 0.68 0 0 Z " fill="#CFCFCF" transform="translate(73,36)"/>
<path d="M0 0 C2.475 0.495 2.475 0.495 5 1 C4.01 1.33 3.02 1.66 2 2 C1.34 1.34 0.68 0.68 0 0 Z " fill="#999999" transform="translate(155,35)"/>
<path d="M0 0 C1.98 0.99 1.98 0.99 4 2 C3.01 2 2.02 2 1 2 C0.67 1.34 0.34 0.68 0 0 Z " fill="#8B8B8B" transform="translate(177,23)"/>
<path d="M0 0 C2.475 0.495 2.475 0.495 5 1 C4.01 1.33 3.02 1.66 2 2 C1.34 1.34 0.68 0.68 0 0 Z " fill="#A4A4CE" transform="translate(151,8)"/>
<path d="M0 0 C0.99 0.33 1.98 0.66 3 1 C1.35 1.33 -0.3 1.66 -2 2 C-1.34 1.34 -0.68 0.68 0 0 Z " fill="#E1E1E1" transform="translate(50,6)"/>
<path d="M0 0 C1.98 0 3.96 0 6 0 C6 0.33 6 0.66 6 1 C4.02 1 2.04 1 0 1 C0 0.67 0 0.34 0 0 Z " fill="#BCBCCA" transform="translate(72,0)"/>
<path d="M0 0 C0.99 0.33 1.98 0.66 3 1 C2.01 1.33 1.02 1.66 0 2 C0 1.34 0 0.68 0 0 Z " fill="#0A6995" transform="translate(160,104)"/>
<path d="M0 0 C1.32 0.33 2.64 0.66 4 1 C3.01 1.495 3.01 1.495 2 2 C1.34 1.34 0.68 0.68 0 0 Z " fill="#7F7F7F" transform="translate(158,11)"/>
<path d="M0 0 C1.65 0 3.3 0 5 0 C5 0.33 5 0.66 5 1 C3.35 1 1.7 1 0 1 C0 0.67 0 0.34 0 0 Z " fill="#CFCFD9" transform="translate(127,1)"/>
<path d="M0 0 C1.65 0 3.3 0 5 0 C5 0.33 5 0.66 5 1 C3.35 1 1.7 1 0 1 C0 0.67 0 0.34 0 0 Z " fill="#B0B0B0" transform="translate(122,0)"/>
<path d="M0 0 C0.99 0.495 0.99 0.495 2 1 C1.67 1.66 1.34 2.32 1 3 C0.67 2.01 0.34 1.02 0 0 Z " fill="#0025CA" transform="translate(193,152)"/>
<path d="M0 0 C0.99 0.495 0.99 0.495 2 1 C1.67 1.66 1.34 2.32 1 3 C0.67 2.01 0.34 1.02 0 0 Z " fill="#0A2ED0" transform="translate(149,151)"/>
<path d="M0 0 C0.99 0.495 0.99 0.495 2 1 C1.67 1.66 1.34 2.32 1 3 C0.67 2.01 0.34 1.02 0 0 Z " fill="#00457A" transform="translate(187,142)"/>
<path d="M0 0 C0.99 0.495 0.99 0.495 2 1 C1.67 1.66 1.34 2.32 1 3 C0.67 2.01 0.34 1.02 0 0 Z " fill="#0C59A2" transform="translate(141,136)"/>
<path d="M0 0 C0.99 0.495 0.99 0.495 2 1 C1.67 1.66 1.34 2.32 1 3 C0.67 2.01 0.34 1.02 0 0 Z " fill="#0A45BA" transform="translate(181,132)"/>
<path d="M0 0 C0.99 0.495 0.99 0.495 2 1 C1.67 1.66 1.34 2.32 1 3 C0.67 2.01 0.34 1.02 0 0 Z " fill="#0040BF" transform="translate(177,125)"/>
<path d="M0 0 C0.66 0.33 1.32 0.66 2 1 C1.01 1 0.02 1 -1 1 C-0.67 0.67 -0.34 0.34 0 0 Z " fill="#6A6A6A" transform="translate(176,112)"/>
<path d="M0 0 C0.99 0.33 1.98 0.66 3 1 C2.01 1 1.02 1 0 1 C0 0.67 0 0.34 0 0 Z " fill="#B0B0BD" transform="translate(20,111)"/>
<path d="M0 0 C0.66 0.33 1.32 0.66 2 1 C1.01 1 0.02 1 -1 1 C-0.67 0.67 -0.34 0.34 0 0 Z " fill="#555555" transform="translate(171,101)"/>
<path d="M0 0 C0.99 0.495 0.99 0.495 2 1 C1.67 1.66 1.34 2.32 1 3 C0.67 2.01 0.34 1.02 0 0 Z " fill="#D0D0D0" transform="translate(9,99)"/>
<path d="M0 0 C0.66 0.33 1.32 0.66 2 1 C1.01 1 0.02 1 -1 1 C-0.67 0.67 -0.34 0.34 0 0 Z " fill="#008FCF" transform="translate(171,98)"/>
<path d="M0 0 C0.99 0.33 1.98 0.66 3 1 C2.01 1 1.02 1 0 1 C0 0.67 0 0.34 0 0 Z " fill="#D0D0D0" transform="translate(56,99)"/>
<path d="M0 0 C0.99 0.495 0.99 0.495 2 1 C1.67 1.66 1.34 2.32 1 3 C0.67 2.01 0.34 1.02 0 0 Z " fill="#D9D9D9" transform="translate(6,95)"/>
<path d="M0 0 C0 3 0 3 0 3 Z " fill="#5F5F6C" transform="translate(179,93)"/>
<path d="M0 0 C0.99 0.495 0.99 0.495 2 1 C1.67 1.66 1.34 2.32 1 3 C0.67 2.01 0.34 1.02 0 0 Z " fill="#BBBBBB" transform="translate(46,88)"/>
<path d="M0 0 C1 4 1 4 1 4 Z " fill="#BBC7C7" transform="translate(42,78)"/>
<path d="M0 0 C0 3 0 3 0 3 Z " fill="#ACACAC" transform="translate(46,56)"/>
<path d="M0 0 C0 3 0 3 0 3 Z " fill="#DDDDDD" transform="translate(48,53)"/>
<path d="M0 0 C0.99 0.495 0.99 0.495 2 1 C1.67 1.66 1.34 2.32 1 3 C0.67 2.01 0.34 1.02 0 0 Z " fill="#0050EF" transform="translate(177,52)"/>
<path d="M0 0 C0.99 0.33 1.98 0.66 3 1 C2.01 1 1.02 1 0 1 C0 0.67 0 0.34 0 0 Z " fill="#1060CF" transform="translate(171,47)"/>
<path d="M0 0 C0.66 0.33 1.32 0.66 2 1 C1.01 1 0.02 1 -1 1 C-0.67 0.67 -0.34 0.34 0 0 Z " fill="#C7C7C7" transform="translate(55,46)"/>
<path d="M0 0 C0.99 0.495 0.99 0.495 2 1 C1.67 1.66 1.34 2.32 1 3 C0.67 2.01 0.34 1.02 0 0 Z " fill="#8A8A8A" transform="translate(193,40)"/>
<path d="M0 0 C0.99 0.33 1.98 0.66 3 1 C2.01 1 1.02 1 0 1 C0 0.67 0 0.34 0 0 Z " fill="#6A6A75" transform="translate(168,41)"/>
<path d="M0 0 C0 3 0 3 0 3 Z " fill="#BABABA" transform="translate(6,39)"/>
<path d="M0 0 C0.99 0.495 0.99 0.495 2 1 C1.67 1.66 1.34 2.32 1 3 C0.67 2.01 0.34 1.02 0 0 Z " fill="#BABABA" transform="translate(191,37)"/>
<path d="M0 0 C0 3 0 3 0 3 Z " fill="#D9D9D9" transform="translate(8,36)"/>
<path d="M0 0 C0.99 0.495 0.99 0.495 2 1 C1.67 1.66 1.34 2.32 1 3 C0.67 2.01 0.34 1.02 0 0 Z " fill="#BFBFDF" transform="translate(187,32)"/>
<path d="M0 0 C4 1 4 1 4 1 Z " fill="#BBBBBB" transform="translate(148,33)"/>
<path d="M0 0 C0.66 0.33 1.32 0.66 2 1 C1.01 1 0.02 1 -1 1 C-0.67 0.67 -0.34 0.34 0 0 Z " fill="#9D9DDD" transform="translate(27,18)"/>
<path d="M0 0 C0.66 0.33 1.32 0.66 2 1 C1.01 1 0.02 1 -1 1 C-0.67 0.67 -0.34 0.34 0 0 Z " fill="#9FAFAF" transform="translate(35,13)"/>
<path d="M0 0 C3 1 3 1 3 1 Z " fill="#AAAAAA" transform="translate(52,129)"/>
<path d="M0 0 C0.66 0 1.32 0 2 0 C1.67 0.66 1.34 1.32 1 2 C0.67 1.34 0.34 0.68 0 0 Z " fill="#4763B1" transform="translate(171,116)"/>
<path d="M0 0 C3 1 3 1 3 1 Z " fill="#C0C0C0" transform="translate(72,108)"/>
<path d="M0 0 C3 1 3 1 3 1 Z " fill="#5571AA" transform="translate(162,106)"/>
<path d="" fill="#C0C0D1" transform="translate(0,0)"/>
<path d="" fill="#888888" transform="translate(0,0)"/>
<path d="" fill="#D8D8D8" transform="translate(0,0)"/>
<path d="" fill="#B2B2B2" transform="translate(0,0)"/>
<path d="" fill="#7A7A96" transform="translate(0,0)"/>
<path d="M0 0 C3 1 3 1 3 1 Z " fill="#D8D8D8" transform="translate(76,35)"/>
<path d="M0 0 C3 1 3 1 3 1 Z " fill="#AAAAAA" transform="translate(152,34)"/>
<path d="M0 0 C3 1 3 1 3 1 Z " fill="#D8D8D8" transform="translate(79,34)"/>
<path d="M0 0 C3 1 3 1 3 1 Z " fill="#E9E9E9" transform="translate(41,10)"/>
<path d="M0 0 C3 1 3 1 3 1 Z " fill="#CDCDCD" transform="translate(53,5)"/>
<path d="" fill="#0080DF" transform="translate(0,0)"/>
<path d="" fill="#1973A6" transform="translate(0,0)"/>
<path d="" fill="#004A95" transform="translate(0,0)"/>
<path d="" fill="#004AB4" transform="translate(0,0)"/>
<path d="" fill="#00B2CC" transform="translate(0,0)"/>
<path d="" fill="#0055AA" transform="translate(0,0)"/>
<path d="" fill="#0055AA" transform="translate(0,0)"/>
<path d="" fill="#00809F" transform="translate(0,0)"/>
<path d="" fill="#006AB4" transform="translate(0,0)"/>
<path d="" fill="#1973A6" transform="translate(0,0)"/>
<path d="" fill="#00609F" transform="translate(0,0)"/>
<path d="" fill="#006080" transform="translate(0,0)"/>
<path d="" fill="#0073CC" transform="translate(0,0)"/>
<path d="M0 0 C2 1 2 1 2 1 Z " fill="#D4D4D4" transform="translate(40,124)"/>
<path d="M0 0 C2 1 2 1 2 1 Z " fill="#B4B4B4" transform="translate(38,123)"/>
<path d="M0 0 C2 1 2 1 2 1 Z " fill="#8C8C8C" transform="translate(36,122)"/>
<path d="" fill="#0055AA" transform="translate(0,0)"/>
<path d="M0 0 C2 1 2 1 2 1 Z " fill="#959595" transform="translate(33,120)"/>
<path d="" fill="#19B2CC" transform="translate(0,0)"/>
<path d="M0 0 C2 1 2 1 2 1 Z " fill="#CCCCCC" transform="translate(31,119)"/>
<path d="M0 0 C2 1 2 1 2 1 Z " fill="#959595" transform="translate(28,117)"/>
<path d="M0 0 C2 1 2 1 2 1 Z " fill="#80809F" transform="translate(25,115)"/>
<path d="M0 0 C2 1 2 1 2 1 Z " fill="#8C8CA6" transform="translate(75,109)"/>
<path d="M0 0 C2 1 2 1 2 1 Z " fill="#AAAAAA" transform="translate(70,107)"/>
<path d="M0 0 C2 1 2 1 2 1 Z " fill="#BFBFBF" transform="translate(165,105)"/>
<path d="M0 0 C2 1 2 1 2 1 Z " fill="#8C8C8C" transform="translate(167,104)"/>
<path d="M0 0 C2 1 2 1 2 1 Z " fill="#2080DF" transform="translate(163,103)"/>
<path d="M0 0 C2 1 2 1 2 1 Z " fill="#D4D4D4" transform="translate(62,103)"/>
<path d="M0 0 C2 1 2 1 2 1 Z " fill="#006AD4" transform="translate(165,102)"/>
<path d="M0 0 C2 1 2 1 2 1 Z " fill="#959595" transform="translate(60,102)"/>
<path d="M0 0 C2 1 2 1 2 1 Z " fill="#006A95" transform="translate(167,101)"/>
<path d="" fill="#808080" transform="translate(0,0)"/>
<path d="" fill="#808080" transform="translate(0,0)"/>
<path d="" fill="#D4D4D4" transform="translate(0,0)"/>
<path d="" fill="#808080" transform="translate(0,0)"/>
<path d="" fill="#E5E5E5" transform="translate(0,0)"/>
<path d="" fill="#CCCCCC" transform="translate(0,0)"/>
<path d="" fill="#006AD4" transform="translate(0,0)"/>
<path d="" fill="#959595" transform="translate(0,0)"/>
<path d="" fill="#0055AA" transform="translate(0,0)"/>
<path d="" fill="#959595" transform="translate(0,0)"/>
<path d="" fill="#CCE5E5" transform="translate(0,0)"/>
<path d="" fill="#E5E5E5" transform="translate(0,0)"/>
<path d="" fill="#8C8C8C" transform="translate(0,0)"/>
<path d="" fill="#959595" transform="translate(0,0)"/>
<path d="" fill="#AAAAAA" transform="translate(0,0)"/>
<path d="" fill="#BFBFBF" transform="translate(0,0)"/>
<path d="" fill="#808080" transform="translate(0,0)"/>
<path d="" fill="#8C8C8C" transform="translate(0,0)"/>
<path d="" fill="#BBE5E5" transform="translate(0,0)"/>
<path d="" fill="#BFBFBF" transform="translate(0,0)"/>
<path d="" fill="#8C8C8C" transform="translate(0,0)"/>
<path d="" fill="#BFBFBF" transform="translate(0,0)"/>
<path d="" fill="#80809F" transform="translate(0,0)"/>
<path d="" fill="#DFDFDF" transform="translate(0,0)"/>
<path d="" fill="#808080" transform="translate(0,0)"/>
<path d="M0 0 C2 1 2 1 2 1 Z " fill="#DFDFDF" transform="translate(58,44)"/>
<path d="" fill="#9F9F9F" transform="translate(0,0)"/>
<path d="M0 0 C2 1 2 1 2 1 Z " fill="#E5E5E5" transform="translate(61,42)"/>
<path d="M0 0 C2 1 2 1 2 1 Z " fill="#CCCCCC" transform="translate(166,40)"/>
<path d="M0 0 C2 1 2 1 2 1 Z " fill="#BFBFBF" transform="translate(164,39)"/>
<path d="M0 0 C2 1 2 1 2 1 Z " fill="#959595" transform="translate(162,38)"/>
<path d="M0 0 C2 1 2 1 2 1 Z " fill="#D4D4D4" transform="translate(69,38)"/>
<path d="M0 0 C2 1 2 1 2 1 Z " fill="#959595" transform="translate(160,37)"/>
<path d="M0 0 C2 1 2 1 2 1 Z " fill="#9F9F9F" transform="translate(23,21)"/>
<path d="M0 0 C2 1 2 1 2 1 Z " fill="#959595" transform="translate(173,20)"/>
<path d="M0 0 C2 1 2 1 2 1 Z " fill="#808080" transform="translate(170,18)"/>
<path d="M0 0 C2 1 2 1 2 1 Z " fill="#AAAAAA" transform="translate(29,17)"/>
<path d="M0 0 C2 1 2 1 2 1 Z " fill="#8C8CCC" transform="translate(167,16)"/>
<path d="M0 0 C2 1 2 1 2 1 Z " fill="#B4B4B4" transform="translate(32,15)"/>
<path d="M0 0 C2 1 2 1 2 1 Z " fill="#8C8C8C" transform="translate(164,14)"/>
<path d="M0 0 C2 1 2 1 2 1 Z " fill="#AAAAAA" transform="translate(162,13)"/>
<path d="M0 0 C2 1 2 1 2 1 Z " fill="#D4FFFF" transform="translate(37,12)"/>
<path d="M0 0 C2 1 2 1 2 1 Z " fill="#BFBFBF" transform="translate(39,11)"/>
<path d="M0 0 C2 1 2 1 2 1 Z " fill="#9F9F9F" transform="translate(156,10)"/>
<path d="M0 0 C2 1 2 1 2 1 Z " fill="#BFBFBF" transform="translate(44,9)"/>
<path d="M0 0 C2 1 2 1 2 1 Z " fill="#C5C5C5" transform="translate(46,8)"/>
<path d="M0 0 C2 1 2 1 2 1 Z " fill="#ACACAC" transform="translate(149,7)"/>
<path d="" fill="#0080FF" transform="translate(0,0)"/>
<path d="" fill="#0066CC" transform="translate(0,0)"/>
<path d="" fill="#006699" transform="translate(0,0)"/>
<path d="" fill="#3366CC" transform="translate(0,0)"/>
<path d="" fill="#99CCCC" transform="translate(0,0)"/>
<path d="" fill="#8080BF" transform="translate(0,0)"/>
<path d="" fill="#BFBFBF" transform="translate(0,0)"/>
<path d="" fill="#808080" transform="translate(0,0)"/>
<path d="" fill="#999999" transform="translate(0,0)"/>
<path d="" fill="#BFBFBF" transform="translate(0,0)"/>
<path d="" fill="#CCCCCC" transform="translate(0,0)"/>
<path d="" fill="#808080" transform="translate(0,0)"/>
<path d="" fill="#666699" transform="translate(0,0)"/>
<path d="" fill="#AAAAAA" transform="translate(0,0)"/>
<path d="" fill="#666699" transform="translate(0,0)"/>
<path d="" fill="#BFBFBF" transform="translate(0,0)"/>
<path d="" fill="#BFBFBF" transform="translate(0,0)"/>
<path d="" fill="#9999CC" transform="translate(0,0)"/>
<path d="" fill="#99CCCC" transform="translate(0,0)"/>
<path d="" fill="#9999CC" transform="translate(0,0)"/>
<path d="" fill="#999999" transform="translate(0,0)"/>
<path d="" fill="#999999" transform="translate(0,0)"/>
<path d="" fill="#BFBFBF" transform="translate(0,0)"/>
<path d="" fill="#666699" transform="translate(0,0)"/>
<path d="" fill="#AAAAAA" transform="translate(0,0)"/>
<path d="" fill="#808080" transform="translate(0,0)"/>
<path d="" fill="#CCCCCC" transform="translate(0,0)"/>
<path d="" fill="#808080" transform="translate(0,0)"/>
<path d="" fill="#999999" transform="translate(0,0)"/>
<path d="" fill="#0040BF" transform="translate(0,0)"/>
<path d="" fill="#666699" transform="translate(0,0)"/>
<path d="" fill="#808080" transform="translate(0,0)"/>
<path d="" fill="#BFBFBF" transform="translate(0,0)"/>
<path d="" fill="#999999" transform="translate(0,0)"/>
<path d="" fill="#999999" transform="translate(0,0)"/>
<path d="" fill="#666699" transform="translate(0,0)"/>
<path d="" fill="#0055AA" transform="translate(0,0)"/>
<path d="" fill="#808080" transform="translate(0,0)"/>
<path d="" fill="#999999" transform="translate(0,0)"/>
<path d="" fill="#0055AA" transform="translate(0,0)"/>
<path d="" fill="#0055AA" transform="translate(0,0)"/>
<path d="" fill="#BFBFBF" transform="translate(0,0)"/>
<path d="" fill="#BFBFBF" transform="translate(0,0)"/>
<path d="" fill="#246DB6" transform="translate(0,0)"/>
<path d="" fill="#999999" transform="translate(0,0)"/>
<path d="" fill="#CCCCCC" transform="translate(0,0)"/>
<path d="" fill="#0055AA" transform="translate(0,0)"/>
<path d="" fill="#CCCCCC" transform="translate(0,0)"/>
<path d="" fill="#999999" transform="translate(0,0)"/>
<path d="" fill="#0055AA" transform="translate(0,0)"/>
<path d="" fill="#CCCCCC" transform="translate(0,0)"/>
<path d="" fill="#0055AA" transform="translate(0,0)"/>
<path d="" fill="#CCCCCC" transform="translate(0,0)"/>
<path d="" fill="#CCCCCC" transform="translate(0,0)"/>
<path d="" fill="#336699" transform="translate(0,0)"/>
<path d="" fill="#BFBFBF" transform="translate(0,0)"/>
<path d="" fill="#999999" transform="translate(0,0)"/>
<path d="" fill="#CCCCCC" transform="translate(0,0)"/>
<path d="" fill="#999999" transform="translate(0,0)"/>
<path d="" fill="#999999" transform="translate(0,0)"/>
<path d="" fill="#BFBFBF" transform="translate(0,0)"/>
<path d="" fill="#CCCCCC" transform="translate(0,0)"/>
<path d="" fill="#CCCCCC" transform="translate(0,0)"/>
<path d="" fill="#AAAAAA" transform="translate(0,0)"/>
<path d="" fill="#808080" transform="translate(0,0)"/>
<path d="" fill="#8080BF" transform="translate(0,0)"/>
<path d="" fill="#8080BF" transform="translate(0,0)"/>
<path d="" fill="#808080" transform="translate(0,0)"/>
<path d="" fill="#AAAAAA" transform="translate(0,0)"/>
<path d="" fill="#CCCCCC" transform="translate(0,0)"/>
<path d="" fill="#CCCCCC" transform="translate(0,0)"/>
<path d="" fill="#CCCCCC" transform="translate(0,0)"/>
<path d="" fill="#999999" transform="translate(0,0)"/>
<path d="" fill="#FFFFFF" transform="translate(0,0)"/>
<path d="" fill="#808080" transform="translate(0,0)"/>
<path d="" fill="#BFBFBF" transform="translate(0,0)"/>
<path d="" fill="#8080BF" transform="translate(0,0)"/>
<path d="" fill="#999999" transform="translate(0,0)"/>
<path d="" fill="#CCCCCC" transform="translate(0,0)"/>
<path d="" fill="#999999" transform="translate(0,0)"/>
</svg>
